<?xml version="1.0" encoding="utf-8"?>
<!-- Generator: Adobe Illustrator 24.0.3, SVG Export Plug-In . SVG Version: 6.00 Build 0)  -->
<svg version="1.1" id="Layer_1" xmlns="http://www.w3.org/2000/svg" xmlns:xlink="http://www.w3.org/1999/xlink" x="0px" y="0px"
	 viewBox="0 0 800 800" style="enable-background:new 0 0 800 800;" xml:space="preserve">
<style type="text/css">
	.st0{enable-background:new    ;}
	.st1{fill-rule:evenodd;clip-rule:evenodd;fill:#BA0305;}
	.st2{fill-rule:evenodd;clip-rule:evenodd;fill:#FFFFFF;}
</style>
<g id="background_1_" class="st0">
	<g id="background">
		<g>
			<path class="st1" d="M642.2,25.2h-483C85.5,25.2,25.7,85,25.7,158.8v483c0,73.7,59.8,133.5,133.5,133.5h483
				c73.7,0,133.5-59.8,133.5-133.5v-483C775.7,85,716,25.2,642.2,25.2z"/>
		</g>
	</g>
</g>
<g id="hlavia_1_" class="st0">
	<g id="hlavia">
		<g>
			<path class="st2" d="M419.4,286.3c-45,0-88.2,36.8-96.5,82.1c-8.3,45.4,21.4,82.1,66.3,82.1c45,0,88.2-36.8,96.5-82.1
				C494,323.1,464.3,286.3,419.4,286.3z"/>
		</g>
	</g>
</g>
<g id="telo_1_" class="st0">
	<g id="telo">
		<g>
			<path class="st2" d="M231.4,566.7h261.3c-0.4-67.3-48.9-119.1-115.5-119.1C310.7,447.5,249,499.4,231.4,566.7z"/>
		</g>
	</g>
</g>
<g id="film._pas_1_" class="st0">
	<g id="film._pas">
		<g>
			<path class="st2" d="M607.2,166.1l-9.6,41c-0.8,3.5-4.4,6.4-7.9,6.4H294c-3.5,0-5.7-2.9-4.9-6.4l9.6-41h-85.8L106.7,621.2h0.2
				l-1.9,8.3H190l8.7-37.4c0.8-3.5,4.4-6.4,7.9-6.4h295.8c3.5,0,5.7,2.9,4.9,6.4l-6.8,29.2h0.1l-1.9,8.1h0.1l0,0.1h87.1l1.9-8.2h0.2
				l106.2-455.1L607.2,166.1L607.2,166.1z M220.5,215.9l5.4-23c0.8-3.5,4.4-6.4,7.9-6.4h31.3c3.5,0,5.7,2.9,4.9,6.4l-5.4,23
				c-0.8,3.5-4.4,6.4-7.9,6.4h-31.4C221.9,222.3,219.7,219.5,220.5,215.9z M202.6,292.8l1.6-6.7c0-0.3,0.1-0.6,0.1-1l3.6-15.3
				c0.8-3.5,4.4-6.4,7.9-6.4h31.2c1.8,0,3.3,0.8,4.2,2c1,1.2,1.4,2.8,1,4.7l-5.3,22.7c-0.8,3.5-4.4,6.4-7.9,6.4h-31.5
				C203.9,299.2,201.8,296.3,202.6,292.8z M184.4,371l5.4-23c0.8-3.5,4.4-6.4,7.9-6.4h31.1c3.5,0,5.7,2.9,4.9,6.4l-5.4,23
				c-0.8,3.5-4.4,6.4-7.9,6.4h-31.1C185.8,377.4,183.6,374.6,184.4,371z M179.2,582l-5.4,23c-0.8,3.5-4.4,6.4-7.9,6.4h-31.3
				c-3.5,0-5.7-2.9-4.9-6.4l5.4-23c0.8-3.5,4.4-6.4,7.9-6.4h31.3C177.9,575.6,180.1,578.5,179.2,582z M197.6,504.6l-5.4,23.1
				c-0.8,3.5-4.4,6.4-7.9,6.4h-31.6c-3.5,0-5.7-2.9-4.9-6.4l5.4-23.1c0.8-3.5,4.4-6.4,7.9-6.4h31.6
				C196.2,498.2,198.4,501.1,197.6,504.6z M202.3,455.9h-31.3c-3.5,0-5.7-2.9-4.9-6.4l5.4-23c0.8-3.5,4.4-6.4,7.9-6.4h31.3
				c3.5,0,5.7,2.9,4.9,6.4l-5.4,23C209.3,453.1,205.8,455.9,202.3,455.9z M509.9,555.8H213.6c-3.5,0-5.7-2.9-4.9-6.4l69.6-298.2
				c0.8-3.5,4.4-6.4,7.9-6.4h296.3c3.5,0,5.7,2.9,4.9,6.4l-69.6,298.2C517,552.9,513.4,555.8,509.9,555.8z M575.2,582l-5.4,23.1
				c-0.8,3.5-4.4,6.4-7.9,6.4h-31.2c-3.5,0-5.7-2.9-4.9-6.4l5.4-23.1c0.8-3.5,4.4-6.4,7.9-6.4h31.2C573.8,575.6,576,578.5,575.2,582
				z M593.5,504.6l-5.4,23.1c-0.8,3.5-4.4,6.4-7.9,6.4h-31.4c-3.5,0-5.7-2.9-4.9-6.4l5.4-23.1c0.8-3.5,4.4-6.4,7.9-6.4h31.4
				C592.2,498.2,594.4,501.1,593.5,504.6z M611.7,426.6l-5.3,22.8c-0.8,3.5-4.4,6.4-7.9,6.4h-31.4c-3.5,0-5.7-2.9-4.9-6.4l5.3-22.8
				c0.8-3.5,4.4-6.4,7.9-6.4h31.4C610.4,420.2,612.6,423,611.7,426.6z M630.1,347.8l-5.4,23.1c-0.8,3.5-4.4,6.4-7.9,6.4h-31.4
				c-3.5,0-5.7-2.9-4.9-6.4l5.4-23.1c0.8-3.5,4.4-6.4,7.9-6.4h31.4C628.7,341.4,630.9,344.2,630.1,347.8z M648.4,269.6l-5.4,23.1
				c-0.8,3.5-4.4,6.4-7.9,6.4h-31.4c-3.5,0-5.7-2.9-4.9-6.4l5.4-23.1c0.8-3.5,4.4-6.4,7.9-6.4h31.4
				C647,263.2,649.2,266.1,648.4,269.6z M660.9,215.9c-0.8,3.5-4.4,6.4-7.9,6.4h-31.4c-3.5,0-5.7-2.9-4.9-6.4l5.4-23.1
				c0.8-3.5,4.4-6.4,7.9-6.4h31.4c3.5,0,5.7,2.9,4.9,6.4L660.9,215.9z"/>
		</g>
	</g>
</g>
</svg>
