<?xml version="1.0" encoding="utf-8"?>
<!-- Generator: Adobe Illustrator 24.0.3, SVG Export Plug-In . SVG Version: 6.00 Build 0)  -->
<svg version="1.1" id="Layer_1" xmlns="http://www.w3.org/2000/svg" xmlns:xlink="http://www.w3.org/1999/xlink" x="0px" y="0px"
	 viewBox="0 0 1500 501.8" style="enable-background:new 0 0 1500 501.8;" xml:space="preserve">
<style type="text/css">
	.st0{enable-background:new    ;}
	.st1{fill-rule:evenodd;clip-rule:evenodd;fill:#FFFFFF;}
	.st2{fill-rule:evenodd;clip-rule:evenodd;fill:#BA0305;}
</style>
<g id="background_1_" class="st0">
	<g id="background">
		<g>
			<path class="st1" d="M1318.1,55.5h-1137c-45,0-81.5,36.5-81.5,81.5v227.5c0,45,36.5,81.5,81.5,81.5h1137
				c45,0,81.5-36.5,81.5-81.5V137C1399.6,92,1363.1,55.5,1318.1,55.5z"/>
		</g>
	</g>
</g>
<g id="CSFD_1_" class="st0">
	<g id="CSFD">
		<g>
			<path class="st2" d="M1129.9,173c-2.1-12.9-7-24.4-14.6-34.6c-6-8.4-14.3-14.4-24.7-18c-10.4-3.6-22.6-5.4-36.6-5.4h-234
				l-11.5,49.8h229.5c12.2,0,21,5.1,26.7,15.3c5.2,9.6,6.2,21,3.1,34.4c-3.4,14.6-11.2,26.5-23.6,35.9
				c-14.3,10.8-32.8,16.1-55.6,16.1l18.1-76.6h-59.5l-1.9,8.2l1.9-8.1H802.8l-13.2,57c1.8-12.5,0-25.4-5.4-38.8
				c-6.6-12.8-13.1-25.5-19.5-38.3c-7.4-15.4-10.7-29.5-9.8-42.5c0.5-2.2,1.1-4.1,1.9-5.7c0.8-1.6,2-3.8,3.6-6.6h-56.4
				c-0.8,1.8-1.8,4-3,6.7c-1.2,2.7-2.2,5.5-2.9,8.5c-2.8,12.2-2.3,24.5,1.5,37.1c2.4,7.8,7.4,18.5,15.2,32.3
				c8.3,14.8,13.6,25.1,16,31.1c1.8,5,2.2,10,1,15c-1.2,5.4-4,9.9-8.2,13.5c-4.2,3.6-8.7,5.4-13.5,5.4h-69.8
				c-20.1,0-34.6-3.3-43.4-9.9c-11.1-8.2-14.3-22-9.8-41.5c3.9-16.7,13.8-29.2,29.9-37.3c12.9-6.6,28.5-9.9,46.8-9.9h13.4l11.8-51
				h-35.6c-32.9,0-61.2,9.3-85.1,27.8c-23.8,18.6-39.1,42.4-45.9,71.5c-5.5,23.7-3.8,45,5.2,63.7c11.5,24.1,33,36.2,64.2,36.2h113.5
				c21.1,0,39.5-6.2,55.1-18.6c13-10.3,21.8-22.8,26.4-37.6l-13,56.1h59.5l17.3-74.6h84.7L918,314.4h77.7c11.8,0,24.3-1.6,37.8-4.9
				c13.4-3.3,26-8,37.8-14.2c13-7.2,24.8-18.4,35.3-33.5c10.5-15.2,17.8-31.5,21.8-49.1C1131.5,199.1,1132,185.8,1129.9,173z"/>
		</g>
	</g>
</g>
<g id="_x2E_cz_1_" class="st0">
	<g id="_x2E_cz">
		<g>
			<path class="st2" d="M1105.5,313.9h29.8l7-29.8h-29.8L1105.5,313.9z M1264.1,194.4l-7,29.8h38.4l-10.1,15.1h0l-49.3,74.6h88.4
				l7.1-30.1h-38.3l29.7-44.5h-0.1l10.4-15.1h0.2l19-29.8L1264.1,194.4L1264.1,194.4z M1200.4,278.2c-6.6-4.9-8.6-13.2-5.8-24.9
				c2.4-10,8.4-17.5,18-22.4c7.8-3.9,17.1-5.9,28.2-5.9h8.1l7.2-30.5h-21.4c-19.8,0-36.8,5.6-51.2,16.7
				c-14.4,11.1-23.6,25.4-27.7,42.9c-3.3,14.2-2.3,27,3.1,38.2c6.9,14.5,19.8,21.7,38.6,21.7h30.6l7-29.8h-8.4
				C1214.4,284.1,1205.7,282.1,1200.4,278.2z"/>
		</g>
	</g>
</g>
<g id="hlavia_1_" class="st0">
	<g id="hlavia">
		<g>
			<path class="st2" d="M330.6,185.4c-26.3,0-51.7,21.5-56.5,48.1c-4.9,26.6,12.5,48.1,38.9,48.1c26.3,0,51.7-21.5,56.5-48.1
				C374.3,206.9,356.9,185.4,330.6,185.4z"/>
		</g>
	</g>
</g>
<g id="telo_1_" class="st0">
	<g id="telo">
		<g>
			<path class="st2" d="M305.9,279.9c-39,0-75.1,30.4-85.4,69.8h153.1C373.3,310.2,344.9,279.9,305.9,279.9z"/>
		</g>
	</g>
</g>
<g id="film._pas_1_" class="st0">
	<g id="film._pas">
		<g>
			<path class="st2" d="M440.6,115l-5.6,24c-0.5,2.1-2.6,3.8-4.6,3.8H257.1c-2.1,0-3.4-1.7-2.9-3.8l5.6-24h-50.3l-62.2,266.7h0.1
				l-1.1,4.8h49.9l5.1-21.9c0.5-2.1,2.6-3.8,4.6-3.8h173.3c2.1,0,3.4,1.7,2.9,3.8l-4,17.1h0.1l-1.1,4.7h0.1l0,0.1h51l1.1-4.8h0.1
				L491.6,115L440.6,115L440.6,115z M214,144.2l3.1-13.5c0.5-2.1,2.6-3.8,4.6-3.8h18.4c2.1,0,3.4,1.7,2.9,3.8l-3.1,13.5
				c-0.5,2.1-2.6,3.8-4.6,3.8h-18.4C214.9,147.9,213.6,146.2,214,144.2z M203.5,189.2l0.9-3.9c0-0.2,0-0.4,0.1-0.6l2.1-9
				c0.5-2.1,2.6-3.8,4.6-3.8h18.3c1.1,0,1.9,0.5,2.5,1.2c0.6,0.7,0.8,1.7,0.6,2.8l-3.1,13.3c-0.5,2.1-2.6,3.8-4.6,3.8h-18.4
				C204.4,193,203.1,191.3,203.5,189.2z M192.9,235.1l3.1-13.5c0.5-2.1,2.6-3.8,4.6-3.8h18.2c2.1,0,3.4,1.7,2.9,3.8l-3.1,13.5
				c-0.5,2.1-2.6,3.8-4.6,3.8h-18.2C193.7,238.8,192.4,237.1,192.9,235.1z M189.9,358.7l-3.1,13.5c-0.5,2.1-2.6,3.7-4.6,3.7h-18.4
				c-2.1,0-3.4-1.7-2.9-3.7l3.1-13.5c0.5-2.1,2.6-3.8,4.6-3.8H187C189.1,354.9,190.4,356.6,189.9,358.7z M200.6,313.3l-3.2,13.5
				c-0.5,2.1-2.6,3.8-4.6,3.8h-18.5c-2.1,0-3.4-1.7-2.9-3.8l3.2-13.5c0.5-2.1,2.6-3.7,4.6-3.7h18.5
				C199.8,309.6,201.1,311.3,200.6,313.3z M203.4,284.8H185c-2.1,0-3.4-1.7-2.9-3.8l3.1-13.5c0.5-2.1,2.6-3.7,4.6-3.7h18.4
				c2.1,0,3.4,1.7,2.9,3.7l-3.1,13.5C207.5,283.1,205.4,284.8,203.4,284.8z M383.6,343.3H210c-2.1,0-3.4-1.7-2.9-3.8l40.8-174.7
				c0.5-2.1,2.6-3.8,4.6-3.8h173.6c2.1,0,3.4,1.7,2.9,3.8l-40.8,174.7C387.8,341.6,385.7,343.3,383.6,343.3z M421.9,358.7l-3.2,13.5
				c-0.5,2.1-2.6,3.8-4.6,3.8h-18.3c-2.1,0-3.4-1.7-2.9-3.8l3.2-13.5c0.5-2.1,2.6-3.8,4.6-3.8H419
				C421.1,354.9,422.4,356.6,421.9,358.7z M432.6,313.3l-3.2,13.5c-0.5,2.1-2.6,3.8-4.6,3.8h-18.4c-2.1,0-3.4-1.7-2.9-3.8l3.2-13.5
				c0.5-2.1,2.6-3.7,4.6-3.7h18.4C431.8,309.6,433.1,311.3,432.6,313.3z M443.3,267.6l-3.1,13.4c-0.5,2.1-2.6,3.8-4.6,3.8h-18.4
				c-2.1,0-3.4-1.7-2.9-3.8l3.1-13.4c0.5-2.1,2.6-3.7,4.6-3.7h18.4C442.5,263.8,443.8,265.5,443.3,267.6z M454.1,221.4l-3.2,13.5
				c-0.5,2.1-2.6,3.8-4.6,3.8h-18.4c-2.1,0-3.4-1.7-2.9-3.8l3.2-13.5c0.5-2.1,2.6-3.8,4.6-3.8h18.4
				C453.2,217.7,454.5,219.4,454.1,221.4z M464.7,175.6l-3.2,13.5c-0.5,2.1-2.6,3.8-4.6,3.8h-18.4c-2.1,0-3.4-1.7-2.9-3.8l3.2-13.5
				c0.5-2.1,2.6-3.8,4.6-3.8h18.4C463.9,171.9,465.2,173.6,464.7,175.6z M472.1,144.2c-0.5,2.1-2.6,3.8-4.6,3.8H449
				c-2.1,0-3.4-1.7-2.9-3.8l3.2-13.5c0.5-2.1,2.6-3.8,4.6-3.8h18.4c2.1,0,3.4,1.7,2.9,3.8L472.1,144.2z"/>
		</g>
	</g>
</g>
<g id="Česko-Slovenská_filmová_databáze_1_" class="st0">
	<g id="Česko-Slovenská_filmová_databáze">
		<g>
			<path class="st2" d="M542.4,349.1l4.9-7h-5.4l-2.8,3.5l-2.6-3.5h-5.4l5,7H542.4z M544.3,378.9c-1.4,1.2-3,1.8-4.8,1.8
				c-2.5,0-4.6-0.9-6.2-2.8c-1.6-1.9-2.4-5-2.4-9.4c0-4.2,0.8-7.2,2.4-9c1.6-1.9,3.7-2.8,6.3-2.8c1.9,0,3.5,0.5,4.8,1.6
				s2.2,2.5,2.6,4.3l7-1.7c-0.8-2.8-2-4.9-3.6-6.4c-2.7-2.5-6.1-3.8-10.4-3.8c-4.9,0-8.8,1.6-11.8,4.8c-3,3.2-4.5,7.7-4.5,13.5
				c0,5.5,1.5,9.8,4.5,13c3,3.2,6.8,4.7,11.4,4.7c3.8,0,6.8-0.9,9.3-2.8s4.2-4.7,5.2-8.5l-6.8-2.2
				C546.6,375.9,545.6,377.7,544.3,378.9z M578.5,364c-2.2-2.5-5.2-3.7-8.9-3.7c-3.4,0-6.1,1.2-8.3,3.6c-2.2,2.4-3.3,5.7-3.3,9.8
				c0,3.5,0.8,6.4,2.5,8.7c2.1,2.9,5.4,4.3,9.8,4.3c2.8,0,5.1-0.6,7-1.9c1.9-1.3,3.2-3.1,4.1-5.6l-6.7-1.1c-0.4,1.3-0.9,2.2-1.6,2.8
				s-1.6,0.9-2.6,0.9c-1.5,0-2.8-0.6-3.9-1.7c-1-1.1-1.6-2.6-1.6-4.6h16.8C581.7,370.3,580.6,366.5,578.5,364z M564.9,371.3
				c0-1.8,0.5-3.3,1.4-4.3c1-1.1,2.2-1.6,3.6-1.6c1.4,0,2.5,0.5,3.5,1.5c1,1,1.5,2.5,1.5,4.4L564.9,371.3L564.9,371.3z M606.1,373.3
				c-1.4-1.2-3.9-2.2-7.5-3c-3.6-0.8-5.7-1.4-6.3-1.9c-0.4-0.3-0.7-0.7-0.7-1.2c0-0.6,0.3-1,0.8-1.4c0.8-0.5,2-0.7,3.8-0.7
				c1.4,0,2.5,0.3,3.2,0.8c0.8,0.5,1.3,1.3,1.5,2.3l6.3-1.2c-0.6-2.2-1.8-3.9-3.5-5c-1.7-1.1-4.3-1.7-7.7-1.7
				c-3.6,0-6.3,0.7-8.1,2.2c-1.7,1.5-2.6,3.3-2.6,5.5c0,2.4,1,4.3,3,5.7c1.4,1,4.9,2.1,10.3,3.3c1.2,0.3,1.9,0.6,2.2,0.9
				c0.3,0.3,0.5,0.8,0.5,1.3c0,0.7-0.3,1.3-0.9,1.8c-0.9,0.6-2.2,1-3.9,1c-1.6,0-2.8-0.3-3.7-1s-1.5-1.7-1.7-3l-6.7,1
				c0.6,2.4,1.9,4.3,3.9,5.7c2,1.4,4.7,2.1,8.2,2.1c3.8,0,6.7-0.8,8.6-2.5c1.9-1.7,2.9-3.7,2.9-6
				C608.2,376.1,607.5,374.5,606.1,373.3z M636.5,360.9h-8.2l-7.8,8.9v-18.5h-6.7v34.9h6.7v-8.1l3.1-3.3l6.4,11.4h7.2l-9.3-16
				L636.5,360.9z M652.4,360.3c-2.5,0-4.7,0.5-6.7,1.6c-2,1.1-3.6,2.7-4.7,4.8c-1.1,2.1-1.6,4.2-1.6,6.5c0,2.9,0.5,5.4,1.6,7.4
				c1.1,2,2.7,3.6,4.8,4.6c2.1,1,4.3,1.6,6.6,1.6c3.8,0,6.9-1.3,9.3-3.8s3.7-5.7,3.7-9.5c0-3.8-1.2-6.9-3.7-9.4
				S656.2,360.3,652.4,360.3z M656.8,379.3c-1.2,1.3-2.6,2-4.4,2c-1.7,0-3.2-0.7-4.4-2c-1.2-1.3-1.8-3.3-1.8-5.8
				c0-2.5,0.6-4.4,1.8-5.8c1.2-1.3,2.7-2,4.4-2c1.8,0,3.2,0.7,4.4,2c1.2,1.3,1.8,3.2,1.8,5.7C658.6,376,658,377.9,656.8,379.3z
				 M669.8,376.8H683v-6.7h-13.2V376.8z M708.1,366.9c-1.6-0.9-4.2-1.7-7.6-2.5c-3.4-0.8-5.6-1.6-6.5-2.3c-0.7-0.6-1-1.3-1-2.1
				c0-0.9,0.4-1.6,1.1-2.2c1.2-0.8,2.8-1.3,4.8-1.3c2,0,3.5,0.4,4.5,1.2c1,0.8,1.6,2.1,1.9,3.9l7.1-0.3c-0.1-3.2-1.3-5.8-3.5-7.7
				c-2.2-1.9-5.5-2.9-9.9-2.9c-2.7,0-5,0.4-6.9,1.2c-1.9,0.8-3.4,2-4.4,3.5c-1,1.5-1.5,3.2-1.5,5c0,2.8,1.1,5.1,3.2,7
				c1.5,1.4,4.2,2.5,8,3.5c2.9,0.7,4.8,1.2,5.7,1.5c1.2,0.4,2.1,0.9,2.5,1.5c0.5,0.6,0.7,1.3,0.7,2.1c0,1.3-0.6,2.4-1.7,3.4
				c-1.2,1-2.9,1.4-5.1,1.4c-2.1,0-3.9-0.5-5.1-1.6c-1.3-1.1-2.1-2.8-2.5-5.1l-6.9,0.7c0.5,3.9,1.9,6.9,4.2,8.9
				c2.4,2,5.8,3.1,10.2,3.1c3,0,5.6-0.4,7.6-1.3c2-0.8,3.6-2.1,4.7-3.9c1.1-1.7,1.7-3.6,1.7-5.6c0-2.2-0.5-4.1-1.4-5.6
				C711.1,368.9,709.8,367.7,708.1,366.9z M719.1,386.1h6.7v-34.9h-6.7V386.1z M744,360.3c-2.5,0-4.7,0.5-6.7,1.6
				c-2,1.1-3.6,2.7-4.7,4.8c-1.1,2.1-1.6,4.2-1.6,6.5c0,2.9,0.5,5.4,1.6,7.4c1.1,2,2.7,3.6,4.8,4.6c2.1,1,4.3,1.6,6.6,1.6
				c3.8,0,6.9-1.3,9.3-3.8c2.5-2.5,3.7-5.7,3.7-9.5c0-3.8-1.2-6.9-3.7-9.4C751,361.5,747.9,360.3,744,360.3z M748.5,379.3
				c-1.2,1.3-2.7,2-4.4,2c-1.8,0-3.2-0.7-4.4-2c-1.2-1.3-1.8-3.3-1.8-5.8c0-2.5,0.6-4.4,1.8-5.8c1.2-1.3,2.7-2,4.4-2
				c1.7,0,3.2,0.7,4.4,2c1.2,1.3,1.8,3.2,1.8,5.7C750.2,376,749.6,377.9,748.5,379.3z M773.6,373.8c-0.3,0.7-0.5,1.4-0.7,2.1
				c-0.1,0.3-0.3,1.1-0.7,2.2l-1.4-4.3l-4.8-12.9h-7l10.2,25.3h6l10.1-25.3h-6.9L773.6,373.8z M807.8,364c-2.2-2.5-5.2-3.7-8.9-3.7
				c-3.4,0-6.1,1.2-8.3,3.6c-2.2,2.4-3.3,5.7-3.3,9.8c0,3.5,0.8,6.4,2.5,8.7c2.1,2.9,5.4,4.3,9.8,4.3c2.8,0,5.1-0.6,7-1.9
				c1.8-1.3,3.2-3.1,4.1-5.6l-6.7-1.1c-0.4,1.3-0.9,2.2-1.6,2.8c-0.7,0.6-1.6,0.9-2.6,0.9c-1.5,0-2.8-0.6-3.9-1.7
				c-1-1.1-1.6-2.6-1.6-4.6h16.8C811,370.3,810,366.5,807.8,364z M794.3,371.3c0-1.8,0.5-3.3,1.4-4.3c1-1.1,2.2-1.6,3.6-1.6
				c1.4,0,2.5,0.5,3.5,1.5c1,1,1.5,2.5,1.5,4.4L794.3,371.3L794.3,371.3z M837.6,363.1c-0.6-0.8-1.6-1.5-2.8-2
				c-1.2-0.5-2.6-0.8-4.1-0.8c-3.4,0-6.1,1.4-8.3,4.3v-3.7h-6.2v25.3h6.7v-11.5c0-2.8,0.2-4.8,0.5-5.8c0.3-1,1-1.9,1.9-2.5
				s2-1,3.1-1c0.9,0,1.7,0.2,2.3,0.7c0.6,0.4,1.1,1.1,1.4,1.9c0.3,0.8,0.4,2.6,0.4,5.3v12.9h6.7v-15.7c0-2-0.1-3.4-0.4-4.5
				C838.7,364.9,838.2,364,837.6,363.1z M865.1,373.3c-1.4-1.2-3.9-2.2-7.5-3c-3.6-0.8-5.7-1.4-6.3-1.9c-0.4-0.3-0.7-0.7-0.7-1.2
				c0-0.6,0.3-1,0.8-1.4c0.8-0.5,2-0.7,3.8-0.7c1.4,0,2.5,0.3,3.2,0.8c0.8,0.5,1.3,1.3,1.5,2.3l6.3-1.2c-0.6-2.2-1.8-3.9-3.5-5
				c-1.7-1.1-4.3-1.7-7.7-1.7c-3.6,0-6.3,0.7-8.1,2.2s-2.6,3.3-2.6,5.5c0,2.4,1,4.3,3,5.7c1.4,1,4.9,2.1,10.3,3.3
				c1.2,0.3,1.9,0.6,2.2,0.9c0.3,0.3,0.5,0.8,0.5,1.3c0,0.7-0.3,1.3-0.9,1.8c-0.9,0.6-2.2,1-3.9,1c-1.6,0-2.8-0.3-3.7-1
				s-1.5-1.7-1.7-3l-6.7,1c0.6,2.4,1.9,4.3,3.9,5.7c2,1.4,4.7,2.1,8.2,2.1c3.8,0,6.7-0.8,8.6-2.5c1.9-1.7,2.9-3.7,2.9-6
				C867.2,376.1,866.5,374.5,865.1,373.3z M895.5,360.9h-8.2l-7.8,8.9v-18.5h-6.7v34.9h6.7v-8.1l3.1-3.3l6.4,11.4h7.2l-9.3-16
				L895.5,360.9z M917.5,350.7H910l-3.3,7.1h4.2L917.5,350.7z M920.4,377.8l0.1-7.8c0-2.9-0.3-4.9-0.9-6c-0.6-1.1-1.6-2-3.1-2.7
				c-1.5-0.7-3.7-1.1-6.7-1.1c-3.3,0-5.8,0.6-7.4,1.8s-2.8,3-3.5,5.4l6.1,1.1c0.4-1.2,1-2,1.6-2.5c0.7-0.5,1.6-0.7,2.8-0.7
				c1.8,0,3,0.3,3.6,0.8c0.6,0.5,1,1.5,1,2.7v0.7c-1.2,0.5-3.4,1.1-6.5,1.6c-2.3,0.4-4.1,1-5.3,1.6c-1.2,0.6-2.2,1.5-2.9,2.6
				s-1,2.4-1,3.8c0,2.2,0.7,3.9,2.3,5.4c1.5,1.4,3.6,2.1,6.2,2.1c1.5,0,2.9-0.3,4.2-0.8c1.3-0.6,2.5-1.4,3.7-2.5
				c0,0.1,0.1,0.4,0.2,0.8c0.3,0.9,0.5,1.5,0.6,2h6.6c-0.6-1.2-1-2.3-1.2-3.4C920.5,381.7,920.4,380.1,920.4,377.8z M913.9,375.3
				c0,1.6-0.1,2.7-0.3,3.3c-0.3,0.9-0.8,1.6-1.6,2.2c-1.1,0.8-2.2,1.2-3.5,1.2c-1.1,0-2-0.3-2.7-1c-0.7-0.7-1-1.5-1-2.4
				c0-1,0.4-1.7,1.3-2.4c0.6-0.4,1.8-0.8,3.6-1.2c1.9-0.4,3.2-0.7,4.1-1L913.9,375.3L913.9,375.3z M944.3,351.6
				c-1.2,0.7-2,1.5-2.5,2.6c-0.5,1-0.7,2.6-0.7,4.8v1.9h-3.7v5.3h3.7v20h6.7v-20h5v-5.3h-5v-1.8c0-1.3,0.2-2.2,0.6-2.6
				c0.4-0.5,1.1-0.7,2.1-0.7c1,0,2,0.1,3.1,0.4l0.9-4.7c-1.8-0.6-3.7-0.9-5.6-0.9C947.1,350.7,945.6,351,944.3,351.6z M956.5,357.4
				h6.7v-6.2h-6.7V357.4z M956.5,386.1h6.7v-25.3h-6.7V386.1z M969.9,386.1h6.7v-34.9h-6.7V386.1z M1016.5,361.4
				c-1.3-0.8-2.9-1.1-4.7-1.1c-1.5,0-2.8,0.3-4.1,1c-1.3,0.7-2.5,1.7-3.6,3c-0.8-1.3-1.7-2.4-2.9-3c-1.2-0.7-2.6-1-4.2-1
				c-3.1,0-5.7,1.3-7.9,4v-3.5h-6.2v25.3h6.7v-12.3c0-2.4,0.2-4.2,0.5-5.2c0.4-1,1-1.8,1.8-2.4c0.8-0.6,1.8-0.8,2.8-0.8
				c0.9,0,1.5,0.2,2,0.5c0.5,0.3,0.9,0.9,1.1,1.6c0.2,0.7,0.4,2.3,0.4,4.8v13.9h6.7V374c0-2.4,0.2-4.1,0.5-5.2
				c0.4-1.1,1-1.9,1.8-2.5c0.8-0.6,1.7-0.9,2.6-0.9c1.3,0,2.2,0.5,2.9,1.4c0.5,0.7,0.7,2.3,0.7,4.9v14.5h6.7V370
				c0-2.4-0.2-4.2-0.7-5.2C1018.7,363.3,1017.8,362.2,1016.5,361.4z M1038.1,360.3c-2.5,0-4.7,0.5-6.7,1.6c-2,1.1-3.6,2.7-4.7,4.8
				c-1.1,2.1-1.6,4.2-1.6,6.5c0,2.9,0.5,5.4,1.6,7.4c1.1,2,2.7,3.6,4.8,4.6c2.1,1,4.3,1.6,6.6,1.6c3.7,0,6.9-1.3,9.3-3.8
				c2.5-2.5,3.7-5.7,3.7-9.5c0-3.8-1.2-6.9-3.7-9.4C1045,361.5,1041.9,360.3,1038.1,360.3z M1042.5,379.3c-1.2,1.3-2.7,2-4.4,2
				s-3.2-0.7-4.4-2c-1.2-1.3-1.8-3.3-1.8-5.8c0-2.5,0.6-4.4,1.8-5.8c1.2-1.3,2.7-2,4.4-2s3.2,0.7,4.4,2c1.2,1.3,1.8,3.2,1.8,5.7
				C1044.3,376,1043.7,377.9,1042.5,379.3z M1067.6,373.8c-0.3,0.7-0.5,1.4-0.7,2.1c-0.1,0.3-0.3,1.1-0.7,2.2l-1.4-4.3l-4.8-12.9h-7
				l10.2,25.3h6l10.1-25.3h-6.9L1067.6,373.8z M1100.8,350.7h-7.5l-3.3,7.1h4.2L1100.8,350.7z M1103.8,377.8l0.1-7.8
				c0-2.9-0.3-4.9-0.9-6c-0.6-1.1-1.6-2-3.1-2.7c-1.5-0.7-3.7-1.1-6.7-1.1c-3.3,0-5.8,0.6-7.4,1.8c-1.7,1.2-2.8,3-3.5,5.4l6.1,1.1
				c0.4-1.2,1-2,1.6-2.5c0.7-0.5,1.6-0.7,2.8-0.7c1.8,0,3,0.3,3.6,0.8c0.6,0.5,1,1.5,1,2.7v0.7c-1.2,0.5-3.4,1.1-6.5,1.6
				c-2.3,0.4-4.1,1-5.3,1.6c-1.2,0.6-2.2,1.5-2.9,2.6s-1,2.4-1,3.8c0,2.2,0.8,3.9,2.3,5.4c1.5,1.4,3.6,2.1,6.2,2.1
				c1.5,0,2.9-0.3,4.2-0.8c1.3-0.6,2.5-1.4,3.7-2.5c0,0.1,0.1,0.4,0.2,0.8c0.3,0.9,0.5,1.5,0.6,2h6.6c-0.6-1.2-1-2.3-1.2-3.4
				C1103.9,381.7,1103.8,380.1,1103.8,377.8z M1097.2,375.3c0,1.6-0.1,2.7-0.3,3.3c-0.3,0.9-0.8,1.6-1.6,2.2
				c-1.1,0.8-2.2,1.2-3.5,1.2c-1.1,0-2-0.3-2.7-1c-0.7-0.7-1.1-1.5-1.1-2.4c0-1,0.4-1.7,1.3-2.4c0.6-0.4,1.8-0.8,3.6-1.2
				c1.9-0.4,3.2-0.7,4.1-1V375.3z M1140.2,363.8c-2.1-2.3-4.5-3.5-7.3-3.5c-3.1,0-5.6,1.1-7.7,3.3c-2,2.2-3,5.5-3,9.8
				c0,4.2,1,7.5,3.1,9.8c2.1,2.3,4.6,3.5,7.5,3.5c1.4,0,2.8-0.4,4.3-1.1c1.4-0.7,2.6-1.8,3.7-3.2v3.7h6.2v-34.9h-6.7L1140.2,363.8
				L1140.2,363.8z M1138.6,379.5c-1.1,1.3-2.4,2-3.9,2c-1.9,0-3.4-0.9-4.5-2.6c-0.7-1.2-1.1-3.2-1.1-5.9c0-2.5,0.5-4.4,1.6-5.7
				c1.1-1.3,2.4-1.9,4-1.9c1.6,0,3,0.6,4,1.9c1.1,1.3,1.6,3.4,1.6,6.3C1140.2,376.2,1139.7,378.2,1138.6,379.5z M1173.9,377.8
				l0.1-7.8c0-2.9-0.3-4.9-0.9-6c-0.6-1.1-1.6-2-3.1-2.7c-1.5-0.7-3.7-1.1-6.7-1.1c-3.3,0-5.8,0.6-7.4,1.8s-2.8,3-3.5,5.4l6.1,1.1
				c0.4-1.2,1-2,1.6-2.5c0.7-0.5,1.6-0.7,2.8-0.7c1.8,0,3,0.3,3.6,0.8c0.6,0.5,1,1.5,1,2.7v0.7c-1.2,0.5-3.4,1.1-6.5,1.6
				c-2.3,0.4-4.1,1-5.3,1.6c-1.2,0.6-2.2,1.5-2.9,2.6c-0.7,1.1-1,2.4-1,3.8c0,2.2,0.8,3.9,2.3,5.4c1.5,1.4,3.6,2.1,6.2,2.1
				c1.5,0,2.9-0.3,4.2-0.8c1.3-0.6,2.5-1.4,3.7-2.5c0,0.1,0.1,0.4,0.2,0.8c0.3,0.9,0.5,1.5,0.6,2h6.6c-0.6-1.2-1-2.3-1.2-3.4
				C1174,381.7,1173.9,380.1,1173.9,377.8z M1167.4,375.3c0,1.6-0.1,2.7-0.3,3.3c-0.3,0.9-0.8,1.6-1.6,2.2c-1.1,0.8-2.2,1.2-3.5,1.2
				c-1.1,0-2-0.3-2.7-1c-0.7-0.7-1.1-1.5-1.1-2.4c0-1,0.4-1.7,1.3-2.4c0.6-0.4,1.8-0.8,3.6-1.2c1.9-0.4,3.2-0.7,4.1-1V375.3z
				 M1189.3,381.2c-0.4,0-0.8-0.1-1.1-0.3c-0.3-0.2-0.5-0.5-0.6-0.8c-0.1-0.3-0.1-1.5-0.1-3.6v-10.2h4.6v-5.3h-4.6v-8.9l-6.7,3.9v5
				h-3.1v5.3h3.1v11c0,2.4,0.1,3.9,0.2,4.7c0.2,1.1,0.5,2,0.9,2.6c0.5,0.6,1.2,1.2,2.1,1.6c1,0.4,2.1,0.6,3.3,0.6c2,0,3.7-0.3,5.3-1
				l-0.6-5.2C1190.8,381,1189.9,381.2,1189.3,381.2z M1217,377.8l0.1-7.8c0-2.9-0.3-4.9-0.9-6c-0.6-1.1-1.6-2-3.1-2.7
				c-1.5-0.7-3.7-1.1-6.7-1.1c-3.3,0-5.8,0.6-7.4,1.8c-1.7,1.2-2.8,3-3.5,5.4l6.1,1.1c0.4-1.2,1-2,1.6-2.5c0.7-0.5,1.6-0.7,2.8-0.7
				c1.8,0,3,0.3,3.6,0.8c0.6,0.5,1,1.5,1,2.7v0.7c-1.2,0.5-3.4,1.1-6.5,1.6c-2.3,0.4-4.1,1-5.3,1.6c-1.2,0.6-2.2,1.5-2.9,2.6
				c-0.7,1.1-1,2.4-1,3.8c0,2.2,0.8,3.9,2.3,5.4c1.5,1.4,3.6,2.1,6.2,2.1c1.5,0,2.9-0.3,4.2-0.8c1.3-0.6,2.5-1.4,3.7-2.5
				c0,0.1,0.1,0.4,0.2,0.8c0.3,0.9,0.5,1.5,0.6,2h6.6c-0.6-1.2-1-2.3-1.2-3.4C1217.1,381.7,1217,380.1,1217,377.8z M1210.5,375.3
				c0,1.6-0.1,2.7-0.3,3.3c-0.3,0.9-0.8,1.6-1.6,2.2c-1.1,0.8-2.2,1.2-3.5,1.2c-1.1,0-2-0.3-2.7-1c-0.7-0.7-1-1.5-1-2.4
				c0-1,0.4-1.7,1.3-2.4c0.6-0.4,1.8-0.8,3.6-1.2c1.9-0.4,3.2-0.7,4.1-1L1210.5,375.3L1210.5,375.3z M1237.3,360.3
				c-2.8,0-5.3,1.2-7.3,3.5v-12.6h-6.7v34.9h6.2v-3.7c1,1.4,2.2,2.5,3.6,3.2c1.4,0.7,2.8,1.1,4.3,1.1c2.9,0,5.4-1.2,7.5-3.5
				s3.1-5.7,3.1-10c0-4.2-1-7.4-3-9.6C1242.9,361.4,1240.4,360.3,1237.3,360.3z M1239.5,379.5c-1,1.3-2.3,1.9-3.8,1.9
				c-1.9,0-3.5-0.9-4.6-2.7c-0.8-1.3-1.2-3.2-1.2-5.8c0-2.5,0.5-4.4,1.6-5.7c1.1-1.2,2.4-1.9,4-1.9c1.6,0,3,0.6,4,1.9
				c1.1,1.3,1.6,3.4,1.6,6.2C1241.1,376.3,1240.6,378.3,1239.5,379.5z M1273.7,377.8l0.1-7.8c0-2.9-0.3-4.9-0.9-6
				c-0.6-1.1-1.6-2-3.1-2.7c-1.5-0.7-3.7-1.1-6.7-1.1c-3.3,0-5.8,0.6-7.4,1.8c-1.7,1.2-2.8,3-3.5,5.4l6.1,1.1c0.4-1.2,1-2,1.6-2.5
				c0.7-0.5,1.6-0.7,2.8-0.7c1.8,0,3,0.3,3.6,0.8c0.6,0.5,1,1.5,1,2.7v0.7c-1.2,0.5-3.4,1.1-6.5,1.6c-2.3,0.4-4.1,1-5.3,1.6
				c-1.2,0.6-2.2,1.5-2.9,2.6c-0.7,1.1-1,2.4-1,3.8c0,2.2,0.8,3.9,2.3,5.4c1.5,1.4,3.6,2.1,6.2,2.1c1.5,0,2.9-0.3,4.2-0.8
				c1.3-0.6,2.5-1.4,3.7-2.5c0,0.1,0.1,0.4,0.2,0.8c0.3,0.9,0.5,1.5,0.6,2h6.6c-0.6-1.2-1-2.3-1.2-3.4
				C1273.8,381.7,1273.7,380.1,1273.7,377.8z M1267.2,375.3c0,1.6-0.1,2.7-0.3,3.3c-0.3,0.9-0.8,1.6-1.6,2.2
				c-1.1,0.8-2.2,1.2-3.5,1.2c-1.1,0-2-0.3-2.7-1c-0.7-0.7-1-1.5-1-2.4c0-1,0.4-1.7,1.3-2.4c0.6-0.4,1.8-0.8,3.6-1.2
				c1.9-0.4,3.2-0.7,4.1-1L1267.2,375.3L1267.2,375.3z M1270.7,350.7h-7.5l-3.3,7.1h4.2L1270.7,350.7z M1286.3,380.4l3.4-3.7
				l9.7-11.1v-4.7h-20.9v5.5l8.9,0c1.3,0,2.3,0,3.1-0.1c-0.7,0.7-1.9,2-3.5,3.8l-9.5,10.9v5.2h22.6v-5.9h-10.4
				C1289.3,380.3,1288.1,380.3,1286.3,380.4z M1317.5,380.9c-0.7,0.6-1.6,0.9-2.6,0.9c-1.5,0-2.8-0.6-3.9-1.7
				c-1-1.1-1.6-2.6-1.6-4.6h16.8c0.1-5.1-0.9-8.9-3.1-11.4s-5.1-3.7-8.9-3.7c-3.4,0-6.1,1.2-8.3,3.6c-2.2,2.4-3.3,5.7-3.3,9.8
				c0,3.5,0.8,6.4,2.5,8.7c2.1,2.9,5.4,4.3,9.8,4.3c2.8,0,5.1-0.6,6.9-1.9c1.9-1.3,3.2-3.1,4.1-5.6l-6.7-1.1
				C1318.8,379.4,1318.2,380.3,1317.5,380.9z M1310.9,367c1-1.1,2.2-1.6,3.6-1.6c1.4,0,2.5,0.5,3.5,1.5c1,1,1.5,2.5,1.5,4.4h-10
				C1309.5,369.5,1310,368.1,1310.9,367z"/>
		</g>
	</g>
</g>
</svg>
